<svg id="icons" enable-background="new 0 0 64 64" height="512" viewBox="0 0 64 64" width="512" xmlns="http://www.w3.org/2000/svg"><circle cx="32" cy="22" fill="#f5f7fa" r="21"/><path d="m20 60h7v3h-7z" fill="#545c66"/><path d="m37 60h7v3h-7z" fill="#545c66"/><path d="m38.02 47h5.98v3h-5.98z" fill="#aab2bd"/><path d="m48 52v6c0 1.1-.9 2-2 2h-2-7-10-7-2c-1.1 0-2-.9-2-2v-6c0-1.101.9-2 2-2h12 4 4.02 5.98 2c1.1 0 2 .899 2 2z" fill="#656d78"/><path d="m45.03 21.439c3.35 1.931 4.5 6.21 2.56 9.561-1.93 3.35-6.21 4.5-9.56 2.56-1.3-.75-2.8-2.16-4.03-3.81-.85-1.13-1.56-2.36-1.99-3.57.141-.399.26-.81.34-1.2 1.49-.16 2.65-1.43 2.65-2.97 0-.42-.09-.83-.25-1.189.3-.271.59-.57.87-.9 3.1-.561 7.21.239 9.41 1.518z" fill="#aab2bd"/><path d="m35.62 19.92c-.28.33-.57.63-.87.9-.46-1.06-1.52-1.81-2.75-1.81-.98 0-1.86.48-2.4 1.21-.38-.13-.79-.229-1.22-.29-2.02-2.42-3.38-6.39-3.38-8.93 0-3.86 3.14-7 7-7 3.87 0 7 3.14 7 7 0 2.54-1.35 6.5-3.38 8.92z" fill="#ccd1d9"/><path d="m34.75 20.82c.16.36.25.77.25 1.19 0 1.54-1.16 2.811-2.65 2.97-.12.02-.23.03-.35.03s-.23-.01-.34-.03c-1.49-.16-2.66-1.43-2.66-2.97 0-.42.09-.83.25-1.189.09-.221.21-.421.35-.601.54-.729 1.42-1.21 2.4-1.21 1.23 0 2.29.75 2.75 1.81z" fill="#656d78"/><path d="m32 25.01c-.12 0-.23-.01-.34-.03-1.49-.16-2.66-1.43-2.66-2.97 0-.42.09-.83.25-1.189.09-.221.21-.421.35-.601-.38-.13-.79-.229-1.22-.29-3.1-.56-7.2.24-9.399 1.51-3.351 1.93-4.501 6.22-2.561 9.56 1.93 3.35 6.21 4.5 9.561 2.57 1.3-.75 2.8-2.171 4.02-3.811.85-1.13 1.57-2.37 2.01-3.58.141-.399.26-.81.34-1.2-.121.021-.231.031-.351.031z" fill="#e6e9ed"/><path d="m32.01 26.18c-.439 1.21-1.16 2.45-2.01 3.58v13.14 7.1h4v-7.101-13.149c-.85-1.13-1.56-2.36-1.99-3.57z" fill="#656d78"/><path d="m30 29.76v13.14c.659.061 1.325.1 2 .1s1.341-.039 2-.101v-13.149c-.85-1.13-1.56-2.36-1.99-3.57-.44 1.21-1.16 2.45-2.01 3.58z" fill="#ccd1d9"/><path d="m32 44c-12.131 0-22-9.869-22-22s9.869-22 22-22 22 9.869 22 22-9.869 22-22 22zm0-42c-11.028 0-20 8.972-20 20s8.972 20 20 20 20-8.972 20-20-8.972-20-20-20z"/><path d="m34.748 21.813c-.277 0-.553-.114-.751-.339-.364-.415-.324-1.047.09-1.412 2.239-1.971 3.912-6.41 3.912-9.063 0-3.309-2.691-6-6-6s-6 2.691-6 6c0 2.652 1.673 7.092 3.912 9.063.414.365.454.997.09 1.412-.367.415-.997.453-1.412.09-2.745-2.418-4.59-7.414-4.59-10.564 0-4.411 3.589-8 8-8s8 3.589 8 8c0 3.15-1.845 8.146-4.59 10.564-.19.167-.426.249-.661.249z"/><path d="m22.488 35.5c-2.768 0-5.462-1.435-6.942-3.998-2.205-3.82-.892-8.724 2.929-10.929 2.726-1.574 7.977-2.476 11.442-1.306.523.177.805.744.628 1.267s-.746.805-1.267.628c-2.83-.955-7.508-.184-9.804 1.144-2.865 1.654-3.851 5.331-2.196 8.196 1.653 2.865 5.333 3.85 8.196 2.196 2.297-1.326 5.305-4.995 5.893-7.92.109-.541.635-.894 1.178-.783.541.109.892.636.783 1.178-.721 3.586-4.126 7.682-6.854 9.258-1.256.724-2.629 1.069-3.986 1.069z"/><path d="m41.514 35.498c-1.356 0-2.729-.345-3.986-1.07-2.728-1.574-6.132-5.669-6.853-9.256-.108-.542.242-1.069.783-1.178.54-.113 1.068.242 1.178.783.587 2.925 3.595 6.593 5.892 7.918 2.864 1.653 6.542.669 8.196-2.195 1.654-2.865.669-6.543-2.196-8.197-2.296-1.326-6.979-2.096-9.806-1.144-.522.18-1.091-.105-1.267-.628-.177-.523.104-1.091.628-1.267 3.466-1.17 8.718-.268 11.444 1.306 3.82 2.207 5.134 7.109 2.929 10.93-1.48 2.563-4.176 3.997-6.942 3.998z"/><path d="m31.999 26.012c-2.206 0-4-1.794-4-4s1.794-4 4-4 4 1.794 4 4-1.794 4-4 4zm0-6c-1.103 0-2 .897-2 2s.897 2 2 2 2-.897 2-2-.897-2-2-2z"/><path d="m29.996 50.998c-.553 0-1-.447-1-1v-20.252c0-.553.447-1 1-1s1 .447 1 1v20.252c0 .553-.447 1-1 1z"/><path d="m33.992 50.998c-.553 0-1-.447-1-1v-20.252c0-.553.447-1 1-1s1 .447 1 1v20.252c0 .553-.447 1-1 1z"/><path d="m45.992 60.998h-27.996c-1.654 0-3-1.346-3-3v-6c0-1.654 1.346-3 3-3h27.996c1.654 0 3 1.346 3 3v6c0 1.654-1.346 3-3 3zm-27.996-10c-.552 0-1 .448-1 1v6c0 .552.448 1 1 1h27.996c.552 0 1-.448 1-1v-6c0-.552-.448-1-1-1z"/><path d="m19.998 64c-.553 0-1-.447-1-1v-3.002c0-.553.447-1 1-1s1 .447 1 1v3.002c0 .553-.447 1-1 1z"/><path d="m26.996 64h-6.998c-.553 0-1-.447-1-1s.447-1 1-1h6.998c.553 0 1 .447 1 1s-.447 1-1 1z"/><path d="m26.996 64c-.553 0-1-.447-1-1v-3.002c0-.553.447-1 1-1s1 .447 1 1v3.002c0 .553-.447 1-1 1z"/><path d="m36.994 64c-.553 0-1-.447-1-1v-3.002c0-.553.447-1 1-1s1 .447 1 1v3.002c0 .553-.447 1-1 1z"/><path d="m43.992 64h-6.998c-.553 0-1-.447-1-1s.447-1 1-1h6.998c.553 0 1 .447 1 1s-.447 1-1 1z"/><path d="m43.992 64c-.553 0-1-.447-1-1v-3.002c0-.553.447-1 1-1s1 .447 1 1v3.002c0 .553-.447 1-1 1z"/><path d="m38.018 50.998c-.553 0-1-.447-1-1v-2.998c0-.553.447-1 1-1s1 .447 1 1v2.998c0 .553-.448 1-1 1z"/><path d="m43.995 48h-5.978c-.553 0-1-.447-1-1s.447-1 1-1h5.978c.553 0 1 .447 1 1s-.447 1-1 1z"/><path d="m43.995 50.998c-.553 0-1-.447-1-1v-2.998c0-.553.447-1 1-1s1 .447 1 1v2.998c0 .553-.447 1-1 1z"/></svg>