<svg height="512" viewBox="0 0 64 64" width="512" xmlns="http://www.w3.org/2000/svg"><g id="Electric_guitar-2" data-name="Electric guitar"><path d="m46 62-13.52-7-.48-.25-.48.25-13.52 7 12-29h4z" fill="#3e3d42"/><path d="m30 12h4v27h-4z" fill="#ebbf00"/><path d="m31 2h2l3 10h-8z" fill="#57565c"/><g fill="#e0e0e2"><path d="m29 42h6v3h-6z"/><path d="m29 48h6v3h-6z"/><path d="m32.48 55h-.96l.48-.25z"/></g><path d="m29 41a1 1 0 0 0 -1 1v3a1 1 0 0 0 1 1h6a1 1 0 0 0 1-1v-3a1 1 0 0 0 -1-1zm5 3h-4v-1h4z"/><path d="m35 47h-6a1 1 0 0 0 -1 1v3a1 1 0 0 0 1 1h6a1 1 0 0 0 1-1v-3a1 1 0 0 0 -1-1zm-1 3h-4v-1h4z"/><path d="m46.924 61.617-11.924-28.817v-19.8h1a1 1 0 0 0 .958-1.287l-.543-1.813a1 1 0 0 0 -.415-1.9h-.156l-.3-1h.456a1 1 0 0 0 0-2h-1c-.019 0-.034.01-.053.011l-.989-3.3a1 1 0 0 0 -.958-.711h-2a1 1 0 0 0 -.958.713l-.989 3.3c-.019-.003-.034-.013-.053-.013h-1a1 1 0 0 0 0 2h.456l-.3 1h-.156a1 1 0 0 0 -.415 1.9l-.543 1.809a1 1 0 0 0 .958 1.291h1v19.8l-11.924 28.817a1 1 0 0 0 1.384 1.271l13.54-7.012 13.54 7.012a1 1 0 0 0 1.384-1.271zm-15.18-58.617h.512l2.4 8h-5.312zm1.256 11h-2v-1h2zm0 2v2h-2v-2zm0 4v2a1 1 0 0 0 0 2v2h-2v-6zm0 8v2h-2v-2zm0 4v2a1 1 0 0 0 0 2v2h-2v-6zm-.54 21.862c-.026-.013-.054-.012-.08-.023a.98.98 0 0 0 -.194-.055.8.8 0 0 0 -.368 0 .984.984 0 0 0 -.2.057c-.026.011-.054.009-.079.022l-11.569 5.991 9.03-21.822v.968a1 1 0 0 0 1 1h4a1 1 0 0 0 1-1v-.968l9.03 21.822z"/></g></svg>