<?xml version="1.0"?>
<svg xmlns="http://www.w3.org/2000/svg" xmlns:xlink="http://www.w3.org/1999/xlink" version="1.1" id="Capa_1" x="0px" y="0px" width="512px" height="512px" viewBox="0 0 321.332 321.332" style="enable-background:new 0 0 321.332 321.332;" xml:space="preserve" class=""><g><g>
	<g>
		<path d="M254.779,80.06l0.067,0.069c10.232-9.88,24.425-4.665,24.425-4.665c-1.869-31.307,39.442-36.62,39.442-36.62    c7.233-12.174-2.817-17.996-2.817-17.996c-17.823,3.35-12.354-5.642-12.354-5.642c2.816-3.881,21.344-4.058,7.586-10.059    c-13.759-5.996-29.986-1.411-29.986-1.411c-1.771,35.639-38.992,38.988-38.992,38.988c5.82,15.7-3.003,21.704-3.003,21.704    l0.29,0.285l-37.396,37.627c-7.073,1.509-16.177,1.695-19.506-6.066c-5.732-13.378,10.827-38.225,24.528-41.73    c0,0-26.755-10.19-61.793,19.11c0,0,7.327,81.227-78.995,61.793c0,0-45.14,19.791-66.275,88.916    c36.623-22.944,76.556-25.751,98.395-3.91c21.927,21.925,19.009,62.081-4.182,98.819c11.49-2.796,56.623-16.497,90.552-65.327    c0,0-21.979-69.754,48.1-67.212c0,0,15.928-17.839,15.291-39.499c0,0-22.929,21.66-39.178,10.509    c-9.615-6.595-8.284-17.852-5.603-25.966L254.779,80.06z" data-original="#000000" class="active-path" data-old_color="#000000" fill="#FFFFFF"/>
	</g>
</g></g> </svg>
